<svg width="20" height="20" viewBox="0 0 20 20" fill="none" xmlns="http://www.w3.org/2000/svg">
<path d="M16 0C18.2091 0 20 1.79086 20 4V16C20 18.2091 18.2091 20 16 20H4C1.79086 20 0 18.2091 0 16V4C0 1.79086 1.79086 0 4 0H16ZM8.66699 15.333C8.49026 15.333 8.32032 15.4034 8.19531 15.5283C8.07029 15.6533 8 15.8232 8 16C8 16.1768 8.07029 16.3467 8.19531 16.4717C8.32032 16.5966 8.49026 16.667 8.66699 16.667H11.333C11.5097 16.667 11.6797 16.5966 11.8047 16.4717C11.9297 16.3467 12 16.1768 12 16C12 15.8232 11.9297 15.6533 11.8047 15.5283C11.6797 15.4034 11.5097 15.333 11.333 15.333H8.66699ZM10 3.32715C9.21213 3.32715 8.43705 3.52687 7.74707 3.90723C7.05719 4.28757 6.47429 4.83584 6.05371 5.50195C5.63308 6.16814 5.38855 6.93032 5.3418 7.7168C5.29506 8.50324 5.44839 9.2887 5.78711 10L5.83301 10.0869C5.90502 10.2335 5.9854 10.376 6.07324 10.5137C6.70669 11.65 7.27232 12.8229 7.7666 14.0264C7.79993 14.1063 7.85349 14.1866 7.85352 14.2666C7.90511 14.3848 7.98998 14.4856 8.09766 14.5566C8.20528 14.6275 8.33108 14.6661 8.45996 14.667H11.5469C11.5835 14.6663 11.6195 14.6609 11.6553 14.6543C11.6576 14.6538 11.6598 14.6528 11.6621 14.6523C11.7411 14.6369 11.8178 14.6092 11.8867 14.5664C11.963 14.519 12.0287 14.4568 12.0801 14.3838L12.127 14.3066L12.1572 14.2764C12.1797 14.2461 12.1797 14.2147 12.1797 14.1797C12.2001 14.1182 12.2246 14.0582 12.2529 14C12.6263 13.16 13.3337 11.673 14.0137 10.373C14.0669 10.2799 14.1204 10.1868 14.167 10.0869C14.1851 10.0595 14.2 10.0302 14.2129 10C14.5516 9.2887 14.7049 8.50324 14.6582 7.7168C14.6114 6.93032 14.3669 6.16814 13.9463 5.50195C13.5257 4.83584 12.9428 4.28757 12.2529 3.90723C11.563 3.52687 10.7879 3.32715 10 3.32715ZM12.125 14.3066C12.106 14.3418 12.0835 14.3741 12.0586 14.4053C12.0517 14.414 12.0455 14.4232 12.0381 14.4316C12.01 14.4633 11.9802 14.4935 11.9463 14.5195L11.8467 14.5869C11.8219 14.602 11.7948 14.6131 11.7666 14.6201C11.7307 14.6354 11.6933 14.6465 11.6553 14.6543L11.5469 14.667L12.125 14.3066ZM10 4.66699C10.8841 4.66699 11.7323 5.01746 12.3574 5.64258C12.9825 6.2677 13.333 7.11595 13.333 8C13.3369 8.7218 13.1032 9.42489 12.667 10L11.627 12.3662L11.207 13.333H8.75977L8.34668 12.3604L7.33301 10C6.89683 9.42489 6.66308 8.7218 6.66699 8C6.66699 7.11595 7.01746 6.2677 7.64258 5.64258C8.2677 5.01746 9.11595 4.66699 10 4.66699ZM10.6279 5.61133C10.5375 5.60549 10.4468 5.61935 10.3623 5.65234C10.2777 5.68541 10.2013 5.73693 10.1387 5.80273C10.0761 5.86849 10.0288 5.94716 10 6.0332V6.11328C9.96089 6.24966 9.96647 6.39523 10.0156 6.52832C10.0648 6.6613 10.1551 6.77535 10.2734 6.85352C10.5261 6.99617 10.7483 7.18723 10.9268 7.41602C11.1052 7.64481 11.2366 7.90673 11.3135 8.18652C11.3473 8.32464 11.4241 8.44888 11.5332 8.54004C11.6423 8.63115 11.778 8.68464 11.9199 8.69336H12C12.0916 8.69157 12.1817 8.66963 12.2637 8.62891C12.3457 8.58808 12.4179 8.52903 12.4746 8.45703C12.5313 8.38501 12.5713 8.30127 12.5918 8.21191C12.6122 8.12266 12.6134 8.02985 12.5938 7.94043C12.4797 7.46759 12.2693 7.0225 11.9756 6.63477C11.6819 6.24707 11.3109 5.9244 10.8867 5.68652C10.8071 5.64278 10.7185 5.61722 10.6279 5.61133Z" fill="black" fill-opacity="0.76"/>
</svg>
